<svg width="162" height="29" viewBox="0 0 162 29" fill="none" xmlns="http://www.w3.org/2000/svg">
<path d="M38.3096 21.9568V7.90029C38.3096 7.53969 38.6025 7.25394 38.9566 7.25394H41.3951C41.7561 7.25394 42.0422 7.5465 42.0422 7.90029V18.7318C42.0422 19.0924 42.3351 19.3782 42.6893 19.3782H48.7786C49.1396 19.3782 49.4257 19.6707 49.4257 20.0245V21.9636C49.4257 22.3242 49.1328 22.6099 48.7786 22.6099H38.9566C38.6025 22.6099 38.3096 22.3174 38.3096 21.9568Z" fill="#066FEF"/>
<path d="M102.65 21.9568V7.90029C102.65 7.53969 102.943 7.25394 103.297 7.25394H105.735C106.096 7.25394 106.382 7.5465 106.382 7.90029V18.7318C106.382 19.0924 106.675 19.3782 107.029 19.3782H113.119C113.48 19.3782 113.766 19.6707 113.766 20.0245V21.9636C113.766 22.3242 113.473 22.6099 113.119 22.6099H103.297C102.943 22.6099 102.65 22.3174 102.65 21.9568Z" fill="#066FEF"/>
<path d="M58.7777 6.8389C53.9757 6.8389 50.4202 9.94139 50.4202 14.8673C50.4202 19.7251 53.9825 23.0249 58.7777 23.0249C63.6001 23.0249 67.1625 19.7251 67.1625 14.8673C67.1557 9.94139 63.5933 6.8389 58.7777 6.8389ZM58.7777 19.6367C56.1962 19.6367 54.3912 17.6432 54.3912 14.8673C54.3912 12.1798 56.169 10.1795 58.7777 10.1795C61.3865 10.1795 63.1847 12.173 63.1847 14.8673C63.1847 17.6432 61.3592 19.6367 58.7777 19.6367Z" fill="#066FEF"/>
<path d="M77.1684 23.0181C72.4345 23.0181 68.8926 19.7183 68.8926 14.9081C68.8926 9.98221 72.5435 6.8389 77.2297 6.8389C79.13 6.8389 81.1666 7.45123 82.4948 8.60786C82.7741 8.8528 82.7877 9.28824 82.5221 9.55358L80.9419 11.132C80.6967 11.377 80.3016 11.3838 80.0496 11.1525C79.3344 10.5129 78.3263 10.1999 77.3591 10.1999C74.7776 10.1999 72.9317 12.1934 72.9317 14.9081C72.9317 17.7044 74.7367 19.6163 77.2978 19.6163C78.4898 19.6163 79.4774 19.1808 80.1586 18.5209C80.4038 18.2827 80.7988 18.2827 81.0508 18.5209L82.6719 20.0449C82.9376 20.2966 82.9444 20.7253 82.6788 20.977C81.3437 22.2425 79.4706 23.0181 77.1684 23.0181Z" fill="#066FEF"/>
<path d="M93.9379 7.33557H91.193C90.9341 7.33557 90.6957 7.49206 90.5936 7.73019L84.6881 21.7186C84.511 22.1473 84.8243 22.6167 85.2875 22.6167H87.9031C88.1755 22.6167 88.4139 22.4534 88.5093 22.2017L89.3198 20.0585C89.4152 19.8068 89.6536 19.6435 89.9261 19.6435H94.9869C95.2525 19.6435 95.4909 19.8068 95.5863 20.0517L96.4581 22.2153C96.5535 22.4602 96.7919 22.6235 97.0576 22.6235H99.7685C100.232 22.6235 100.545 22.1541 100.368 21.7254L94.5237 7.73699C94.4352 7.49206 94.2036 7.33557 93.9379 7.33557ZM90.8728 15.7858L91.8877 13.0439C92.0989 12.4792 92.9026 12.4792 93.107 13.0507L94.1014 15.7926C94.2513 16.2144 93.9448 16.6635 93.4952 16.6635H91.479C91.0295 16.6567 90.7162 16.2076 90.8728 15.7858Z" fill="#066FEF"/>
<path d="M125.277 7.33557H122.532C122.273 7.33557 122.035 7.49206 121.933 7.73019L116.027 21.7186C115.85 22.1473 116.163 22.6167 116.627 22.6167H119.242C119.515 22.6167 119.753 22.4534 119.848 22.2017L120.659 20.0585C120.754 19.8068 120.993 19.6435 121.265 19.6435H126.326C126.592 19.6435 126.83 19.8068 126.925 20.0517L127.797 22.2153C127.893 22.4602 128.131 22.6235 128.397 22.6235H131.108C131.571 22.6235 131.884 22.1541 131.707 21.7254L125.876 7.73019C125.774 7.49206 125.536 7.33557 125.277 7.33557ZM122.212 15.7858L123.227 13.0439C123.438 12.4792 124.242 12.4792 124.446 13.0507L125.441 15.7926C125.59 16.2144 125.284 16.6635 124.834 16.6635H122.825C122.369 16.6567 122.055 16.2076 122.212 15.7858Z" fill="#066FEF"/>
<path d="M133.778 21.9568V20.3103C133.778 19.7183 133.982 19.14 134.357 18.6774L140.664 10.9143C140.834 10.7034 140.684 10.3836 140.412 10.3836H134.595C134.234 10.3836 133.948 10.0911 133.948 9.73729V7.88668C133.948 7.52608 134.241 7.24033 134.595 7.24033H145.091C145.452 7.24033 145.738 7.53289 145.738 7.88668V9.28824C145.738 9.88697 145.534 10.4653 145.153 10.9279L138.682 18.8679C138.511 19.0788 138.661 19.3986 138.934 19.3986H145.248C145.609 19.3986 145.895 19.6911 145.895 20.0449V21.9568C145.895 22.3174 145.602 22.6031 145.248 22.6031H134.425C134.07 22.6099 133.778 22.3174 133.778 21.9568Z" fill="#066FEF"/>
<path d="M156.541 16.8812V21.9568C156.541 22.3174 156.248 22.6031 155.894 22.6031H153.476C153.115 22.6031 152.829 22.3106 152.829 21.9568V16.8676C152.829 16.3641 152.686 15.8742 152.407 15.4524L147.707 8.24728C147.427 7.81864 147.734 7.24713 148.252 7.24713H151.174C151.405 7.24713 151.616 7.3696 151.732 7.57371L154.545 12.4452C154.668 12.6629 154.981 12.6629 155.104 12.4452L157.917 7.57371C158.033 7.3764 158.244 7.24713 158.475 7.24713H161.234C161.752 7.24713 162.058 7.82545 161.772 8.25408L156.97 15.4456C156.698 15.8742 156.541 16.3709 156.541 16.8812Z" fill="#066FEF"/>
<path d="M20.6817 1.73733L20.5046 2.16663L19.1151 5.47838C19.2513 5.09678 18.9652 4.69474 18.5565 4.69474H7.18157C6.75927 4.69474 6.47319 5.12404 6.63666 5.51246L9.36121 12.0269C9.45657 12.245 9.66772 12.3881 9.90611 12.3881H15.3143C15.7366 12.3881 16.0159 12.8106 15.8661 13.199L15.6958 13.6079L14.3063 16.9264C14.4425 16.5448 14.1632 16.136 13.7477 16.136H11.97C11.5477 16.136 11.2616 16.5653 11.425 16.9537L16.0295 27.9588C16.2271 28.429 15.8797 28.9469 15.3756 28.9469H12.5421C12.256 28.9469 11.9972 28.7765 11.8882 28.5108L1.05135 2.58912C0.724407 1.80547 1.29656 0.946869 2.14117 0.946869H20.1231C20.5318 0.946869 20.8179 1.35573 20.6817 1.73733Z" fill="#066FEF"/>
<path d="M26.124 4.6334L20.8928 17.0968C20.6136 17.7578 19.9733 18.1871 19.2581 18.1871H14.6673C14.245 18.1871 13.9589 17.7578 14.1224 17.3625L14.2926 16.9605C14.2995 16.9537 14.2995 16.94 14.3063 16.9332L15.6958 13.6147C15.5323 14.0031 15.8184 14.4392 16.2407 14.4392H17.4804C17.7188 14.4392 17.9367 14.2961 18.0253 14.078L20.7566 7.56355C20.9201 7.17513 20.634 6.73902 20.2117 6.73902H19.4761C19.0538 6.73902 18.7677 6.30972 18.9312 5.91449L19.1015 5.51244C19.1083 5.49881 19.1083 5.492 19.1151 5.47837L20.4978 2.17343C20.3343 2.56185 20.6204 2.99796 21.0427 2.99796H25.0341C25.8788 2.99115 26.4509 3.85657 26.124 4.6334Z" fill="#A1CBFD"/>
</svg>
